<svg xmlns="http://www.w3.org/2000/svg" viewBox="0 0 633.51 148.28"><defs><style>.cls-1{fill:#2d2b3d;}</style></defs><title>c1_Dark</title><g id="Layer_2" data-name="Layer 2"><g id="Layer_1-2" data-name="Layer 1"><g id="Artwork_185" data-name="Artwork 185"><path class="cls-1" d="M72.05,45.41c0,12.62,7.24,21,18.14,21s18.15-8.06,18.15-20.56c0-6-1.16-10-3.79-13.67A16.87,16.87,0,0,0,90.3,25.07c-10.9,0-18.25,8.27-18.25,20.34m46.41.34c0,17-11.15,28.14-28,28.14-17.57,0-28.49-11.14-28.49-28.83,0-16.65,11.15-27.46,28.26-27.46,17.46,0,28.26,10.81,28.26,28.15"/><path class="cls-1" d="M143.75,31.1c1.11-7.93,7.69-13.33,16.48-13.33a18.74,18.74,0,0,1,4.35.57v8.57a7.42,7.42,0,0,0-5.21-1.69,14.66,14.66,0,0,0-10.64,4.41c-3.4,3.36-5,8.37-5,15.17V65.51h11.42v7.4H124.26v-7.4h10.08v-39H124.26V19.15h19.49Z"/><path class="cls-1" d="M190.11,31.1c1.15-7.93,7.94-13.33,17-13.33a19.92,19.92,0,0,1,4.48.57v8.57a7.4,7.4,0,0,0-5.21-1.69,14.68,14.68,0,0,0-10.64,4.41c-3.36,3.36-5,8.37-5,15.17V65.51H202.2v7.4H170.62v-7.4H180.7v-39H170.62V19.15h19.49Z"/><path class="cls-1" d="M259.75,40.65c-.57-9.88-6.77-15.85-16.66-15.85s-16.3,5.85-17.68,15.85Zm9.53,15.46a19.66,19.66,0,0,1-3.15,8.17c-4.56,6.67-12,10.09-22.55,10.09-11.34,0-18.59-3.28-23.84-10.76a29.15,29.15,0,0,1-5-17.18c0-18.34,10.64-29.33,28.28-29.33,13.79,0,22.55,6,25.71,17.53,1.17,4.32,1.41,6.55,1.41,13.44H224.76c.35,11.34,7.83,18.69,19.28,18.69,8.65,0,14.84-4,16.36-10.63Z"/><polygon class="cls-1" points="293.59 65.51 303 65.51 303 72.91 274.11 72.91 274.11 65.51 283.51 65.51 283.51 7.73 274.11 7.73 274.11 1.01 293.59 1.01 293.59 65.51"/><path class="cls-1" d="M338.1,47c-8.16,0-12.42.8-15.4,2.76a8.73,8.73,0,0,0-4,7.46c0,5.63,4.36,9.19,11.26,9.19,6,0,10.91-2.06,13.89-6,2.18-2.87,3.11-5.86,3.79-13.22C344.3,47,342.12,47,338.1,47m-28-12.43c1.4-11.5,8.83-16.8,23.81-16.8q12.9,0,18.47,5.5c3.35,3.37,4.41,7,4.41,15.17v27h10.08V72.9H348V61.37c-2.92,8.73-9.12,12.52-19.81,12.52-12.4,0-19.64-6-19.64-16.31,0-7,3.36-12.1,9.65-14.93,3.9-1.73,9.88-2.53,19.18-2.53,1.38,0,9.94.23,9.94.23V38.3c.12-5.74-.67-8.06-3.13-10.08-2.21-1.94-5.69-2.87-10.22-2.87-8.59,0-13.24,3.22-13.82,9.31Z"/><path class="cls-1" d="M385,57.79c0,3.86.22,5.34,1.35,6.59a5.65,5.65,0,0,0,4.48,2.05,5.27,5.27,0,0,0,5.26-3.64c.45-1.35.67-3,.79-6.72h7.27c0,6.47-.45,9.1-2.13,11.82-2.57,4-6.72,5.92-12.65,5.92a14.4,14.4,0,0,1-9.41-3c-3.24-2.73-4.37-6.14-4.37-13.19V26.54H364.81V19.15h10.75V3.45L385,0V19.15h18.15v7.39H385Z"/><polygon class="cls-1" points="429.99 65.51 438.72 65.51 438.72 72.91 411.18 72.91 411.18 65.51 420.58 65.51 420.58 26.54 411.18 26.54 411.18 19.15 429.99 19.15 429.99 65.51"/><path class="cls-1" d="M455.15,45.41c0,12.62,7.23,21,18.14,21s18.15-8.06,18.15-20.56c0-6-1.16-10-3.8-13.67a16.85,16.85,0,0,0-14.24-7.12c-10.9,0-18.25,8.27-18.25,20.34m46.4.34c0,17-11.14,28.14-28,28.14C456,73.89,445,62.75,445,45.06c0-16.65,11.14-27.46,28.22-27.46,17.5,0,28.29,10.81,28.29,28.15"/><path class="cls-1" d="M526.75,29.56c2.06-7.54,8.78-11.79,18.47-11.79,12.31,0,19.16,6,19.16,16.75v31h9.41v7.39H545.57V65.52h8.73V37.86a12.64,12.64,0,0,0-12.57-12.67c-9.19,0-15,6.56-15,16.88V65.52h9.41v7.39h-28.9V65.52h10.08v-39H507.26V19.15h19.49Z"/><path class="cls-1" d="M455.15,119.22c0,12.63,7.23,21,18.14,21s18.15-8.06,18.15-20.56c0-6-1.16-10-3.8-13.67a16.85,16.85,0,0,0-14.24-7.12c-10.9,0-18.25,8.27-18.25,20.33m46.4.34c0,17-11.14,28.15-28,28.15C456,147.71,445,136.56,445,118.87c0-16.65,11.14-27.45,28.22-27.45,17.5,0,28.29,10.8,28.29,28.14"/><path class="cls-1" d="M526.75,102.81c2-7.57,8.78-11.83,18.47-11.83,12.31,0,19.16,6,19.16,16.76v31h9.41v7.39H545.57v-7.39h8.73V111.11a12.64,12.64,0,0,0-12.57-12.68c-9.19,0-15,6.57-15,16.89v23.43h9.41v7.39h-28.9v-7.39h10.08v-39H507.26V92.39h19.49Z"/><path class="cls-1" d="M623.16,114.56c-.58-9.87-6.78-15.85-16.66-15.85s-16.31,5.86-17.69,15.85ZM632.69,130a19.7,19.7,0,0,1-3.15,8.18c-4.57,6.66-12,10.08-22.56,10.08-11.34,0-18.58-3.28-23.84-10.76a29.13,29.13,0,0,1-5-17.18C578.11,102,588.75,91,606.39,91c13.79,0,22.56,6,25.71,17.54,1.17,4.32,1.41,6.54,1.41,13.43H588.16c.35,11.34,7.83,18.7,19.29,18.7,8.65,0,14.84-4,16.36-10.63Z"/><path class="cls-1" d="M44.55,56.11C41.75,62.73,36,66.66,28.27,66.66c-10.92,0-18.14-8.39-18.14-21,0-12.1,7.34-20.34,18.26-20.34a16.85,16.85,0,0,1,14.25,7.12A24.78,24.78,0,0,1,44,34.6h10.7C50.91,24,41.51,17.81,28.27,17.81,11.15,17.83,0,28.63,0,45.29,0,63,10.92,74.13,28.5,74.13c13.25,0,23-6.86,26.53-18Z"/><path class="cls-1" d="M630.9,25.87a6.72,6.72,0,1,1-6.72-6.72,6.72,6.72,0,0,1,6.72,6.72"/><path class="cls-1" d="M614.77,45.36a6.72,6.72,0,1,1-6.72-6.72,6.71,6.71,0,0,1,6.72,6.72"/><path class="cls-1" d="M598,65.51a6.72,6.72,0,1,1-6.72-6.72A6.72,6.72,0,0,1,598,65.51"/></g></g></g></svg>