<svg width="397.333" height="457.333" viewBox="0 0 298 343" xmlns="http://www.w3.org/2000/svg" xmlns:xlink="http://www.w3.org/1999/xlink" overflow="hidden"><g transform="matrix(0.1 0 0 -0.1 0 343)"><path d="M1650 3148C1650 3114 1612 3084 1560 3075 1522 3069 1520 3066 1514 3027 1509 2994 1496 2975 1460 2940 1421 2903 1300 2718 1300 2696 1300 2673 1326 2704 1375 2788 1407 2841 1451 2901 1474 2921 1503 2947 1518 2970 1525 3001 1535 3041 1540 3046 1584 3062 1661 3089 1685 3121 1660 3160 1652 3172 1650 3169 1650 3148Z" fill="#FFFFFF"/><path d="M1390 2581C1390 2575 1394 2568 1400 2565 1406 2562 1407 2566 1404 2574 1397 2592 1390 2595 1390 2581Z" fill="#FFFFFF"/><path d="M1531 2474C1531 2463 1534 2460 1537 2468 1540 2475 1539 2484 1536 2487 1533 2491 1530 2485 1531 2474Z" fill="#FFFFFF"/><path d="M1857 2436C1845 2427 1843 2420 1849 2415 1855 2412 1860 2414 1860 2419 1860 2425 1867 2430 1875 2430 1883 2430 1890 2435 1890 2440 1890 2454 1879 2452 1857 2436Z" fill="#FFFFFF"/><path d="M1910 2439C1910 2428 1934 2422 1968 2426 1985 2428 2002 2425 2005 2420 2008 2414 2019 2410 2028 2410 2042 2410 2042 2412 2031 2419 2020 2426 2022 2429 2039 2435 2052 2439 2064 2439 2067 2436 2071 2433 2068 2430 2061 2430 2054 2430 2052 2425 2055 2419 2059 2413 2068 2411 2076 2414 2084 2417 2090 2415 2090 2410 2090 2404 2094 2400 2098 2400 2111 2400 2110 2440 2097 2441 2050 2447 1910 2445 1910 2439Z" fill="#FFFFFF"/><path d="M696 2427C699 2417 705 2412 708 2415 711 2418 708 2426 701 2433 691 2442 690 2441 696 2427Z" fill="#FFFFFF"/><path d="M2120 2422C2120 2406 2165 2393 2202 2397 2223 2399 2252 2394 2267 2387 2310 2365 2360 2358 2354 2374 2347 2393 2295 2406 2220 2409 2184 2410 2151 2415 2146 2421 2134 2432 2120 2433 2120 2422Z" fill="#FFFFFF"/><path d="M1790 2400C1782 2395 1780 2390 1785 2390 1791 2390 1802 2395 1810 2400 1818 2405 1821 2410 1815 2410 1810 2410 1798 2405 1790 2400Z" fill="#FFFFFF"/><path d="M1924 2378C1921 2374 1925 2370 1932 2370 1942 2370 1941 2367 1930 2360 1921 2354 1913 2355 1907 2363 1903 2370 1902 2326 1906 2265 1909 2205 1913 2131 1913 2103 1914 2074 1918 2050 1922 2050 1927 2050 1929 2068 1926 2090 1923 2112 1926 2132 1931 2136 1936 2139 1940 2172 1939 2208 1939 2245 1940 2287 1943 2303 1945 2318 1943 2333 1938 2336 1918 2348 1954 2371 1988 2368 2008 2367 2025 2370 2027 2376 2032 2390 1932 2391 1924 2378Z" fill="#FFFFFF"/><path d="M2136 2371C2133 2367 2118 2364 2103 2366 2079 2370 2078 2369 2095 2361 2127 2346 2160 2348 2160 2365 2160 2381 2144 2385 2136 2371Z" fill="#FFFFFF"/><path d="M2370 2371C2370 2366 2403 2352 2443 2341 2529 2315 2581 2289 2595 2264 2614 2230 2650 2208 2650 2231 2650 2237 2641 2244 2630 2247 2619 2250 2609 2256 2609 2261 2608 2266 2607 2276 2606 2282 2605 2296 2540 2330 2500 2336 2486 2339 2451 2350 2423 2360 2394 2371 2370 2376 2370 2371Z" fill="#FFFFFF"/><path d="M1728 2363C1735 2360 1744 2361 1747 2364 1751 2367 1745 2370 1734 2369 1723 2369 1720 2366 1728 2363Z" fill="#FFFFFF"/><path d="M2048 2363C2055 2360 2064 2361 2067 2364 2071 2367 2065 2370 2054 2369 2043 2369 2040 2366 2048 2363Z" fill="#FFFFFF"/><path d="M2175 2360C2172 2355 2174 2350 2179 2350 2185 2350 2190 2355 2190 2360 2190 2366 2188 2370 2186 2370 2183 2370 2178 2366 2175 2360Z" fill="#FFFFFF"/><path d="M2202 2354C2212 2345 2280 2342 2280 2351 2280 2356 2261 2360 2238 2360 2215 2360 2199 2357 2202 2354Z" fill="#FFFFFF"/><path d="M2296 2335C2302 2319 2307 2318 2340 2318 2398 2318 2421 2321 2416 2328 2413 2333 2387 2335 2358 2333 2320 2331 2309 2332 2320 2340 2332 2348 2331 2350 2313 2350 2297 2350 2292 2346 2296 2335Z" fill="#FFFFFF"/><path d="M1840 2320C1840 2309 1844 2300 1848 2300 1852 2300 1856 2309 1857 2320 1858 2331 1855 2340 1849 2340 1844 2340 1840 2331 1840 2320Z" fill="#FFFFFF"/><path d="M1672 2318C1665 2311 1660 2301 1660 2296 1660 2290 1666 2292 1673 2301 1680 2310 1692 2319 1700 2323 1713 2328 1713 2329 1700 2329 1691 2330 1679 2325 1672 2318Z" fill="#FFFFFF"/><path d="M1790 2306C1790 2298 1783 2290 1775 2286 1767 2283 1760 2285 1760 2291 1760 2296 1750 2292 1738 2280 1726 2269 1707 2260 1696 2260 1677 2259 1677 2258 1692 2249 1714 2237 1796 2276 1803 2303 1806 2312 1804 2320 1799 2320 1794 2320 1790 2314 1790 2306Z" fill="#FFFFFF"/><path d="M1952 2309C1954 2302 1962 2294 1969 2292 1977 2289 1981 2293 1978 2301 1976 2308 1968 2316 1961 2318 1953 2321 1949 2317 1952 2309Z" fill="#FFFFFF"/><path d="M1630 2300C1629 2292 1628 2282 1629 2278 1629 2274 1623 2273 1615 2276 1607 2279 1596 2273 1588 2261 1581 2249 1572 2240 1567 2240 1563 2240 1562 2245 1566 2252 1571 2259 1569 2260 1561 2256 1554 2251 1551 2245 1554 2242 1558 2239 1543 2228 1523 2219 1502 2209 1490 2201 1497 2200 1503 2200 1515 2198 1522 2195 1530 2192 1546 2199 1558 2210 1570 2221 1580 2229 1580 2226 1580 2223 1594 2234 1611 2249 1631 2268 1640 2284 1637 2296 1634 2310 1632 2311 1630 2300Z" fill="#FFFFFF"/><path d="M1990 2303C1990 2283 2015 2260 2038 2259 2059 2259 2061 2257 2047 2251 2030 2245 2030 2243 2052 2219 2078 2191 2080 2162 2062 2117 2054 2099 2044 2090 2033 2092 2005 2096 1990 2081 1990 2051 1990 2013 2001 2005 2017 2032 2024 2045 2029 2049 2030 2041 2030 2033 2021 2016 2009 2004 1992 1986 1991 1982 2004 1977 2021 1970 2053 1997 2045 2011 2041 2016 2044 2020 2049 2020 2055 2020 2060 2014 2060 2006 2060 1999 2069 1990 2081 1987 2093 1984 2100 1977 2097 1973 2094 1968 2095 1958 2101 1950 2107 1939 2110 1938 2110 1948 2110 1955 2115 1958 2120 1955 2126 1951 2130 1970 2130 2004 2130 2034 2125 2062 2120 2065 2113 2069 2112 2076 2119 2083 2125 2091 2124 2108 2115 2133 2108 2153 2106 2170 2110 2170 2115 2170 2121 2164 2123 2158 2126 2150 2129 2152 2129 2163 2130 2172 2124 2180 2116 2180 2097 2180 2084 2200 2098 2209 2113 2218 2033 2303 2009 2305 1998 2306 1990 2305 1990 2303ZM2035 2280C2038 2275 2034 2270 2026 2270 2017 2270 2010 2275 2010 2280 2010 2286 2014 2290 2019 2290 2025 2290 2032 2286 2035 2280ZM2085 2029C2085 2021 2093 2016 2103 2018 2116 2020 2120 2014 2119 1993 2118 1976 2116 1972 2113 1983 2111 1992 2100 2000 2089 2000 2079 2000 2070 2004 2070 2009 2070 2014 2067 2026 2063 2036 2059 2048 2061 2051 2071 2048 2079 2045 2085 2037 2085 2029Z" fill="#FFFFFF"/><path d="M2423 2300C2432 2294 2444 2291 2449 2295 2454 2298 2462 2295 2465 2289 2469 2284 2478 2281 2486 2284 2493 2287 2502 2285 2505 2280 2509 2274 2521 2270 2533 2271 2548 2271 2550 2273 2540 2277 2532 2280 2523 2287 2520 2291 2517 2295 2490 2302 2460 2305 2417 2310 2409 2309 2423 2300Z" fill="#FFFFFF"/><path d="M1842 2265C1843 2251 1848 2240 1852 2240 1856 2240 1860 2235 1860 2229 1860 2224 1856 2221 1851 2224 1846 2227 1848 2212 1856 2191 1863 2170 1867 2139 1865 2122 1863 2105 1865 2088 1870 2085 1875 2082 1877 2073 1873 2065 1869 2054 1872 2052 1885 2056 1902 2063 1902 2070 1884 2145 1881 2156 1877 2185 1874 2210 1871 2235 1864 2260 1859 2266 1854 2272 1853 2280 1857 2283 1860 2287 1858 2290 1852 2290 1845 2290 1841 2279 1842 2265Z" fill="#FFFFFF"/><path d="M2565 2260C2568 2255 2573 2250 2576 2250 2578 2250 2580 2255 2580 2260 2580 2266 2575 2270 2569 2270 2564 2270 2562 2266 2565 2260Z" fill="#FFFFFF"/><path d="M1670 2230C1670 2225 1675 2220 1680 2220 1686 2220 1690 2225 1690 2230 1690 2236 1686 2240 1680 2240 1675 2240 1670 2236 1670 2230Z" fill="#FFFFFF"/><path d="M2660 2230C2660 2225 2670 2220 2683 2220 2701 2220 2702 2222 2690 2230 2671 2243 2660 2243 2660 2230Z" fill="#FFFFFF"/><path d="M1638 2217C1629 2210 1612 2198 1600 2190 1544 2151 1546 2156 1564 2122 1573 2104 1584 2090 1588 2090 1592 2090 1602 2070 1609 2045 1622 2001 1633 1990 1645 2010 1648 2016 1646 2020 1641 2020 1635 2020 1630 2028 1630 2037 1630 2067 1606 2120 1593 2120 1586 2120 1580 2129 1580 2139 1580 2157 1602 2179 1646 2206 1657 2213 1663 2220 1660 2223 1657 2226 1648 2223 1638 2217Z" fill="#FFFFFF"/><path d="M2720 2220C2728 2215 2732 2210 2728 2210 2717 2210 2736 2165 2746 2165 2761 2165 2780 2150 2780 2139 2780 2133 2775 2132 2769 2136 2761 2140 2760 2135 2765 2121 2769 2108 2769 2088 2766 2076 2761 2057 2755 2054 2730 2058 2712 2061 2700 2058 2700 2051 2700 2041 2729 2035 2753 2039 2758 2040 2758 2036 2755 2030 2751 2024 2742 2021 2735 2024 2712 2033 2699 2004 2701 1946 2703 1901 2706 1890 2717 1895 2725 1898 2740 1900 2751 1900 2761 1900 2770 1904 2770 1910 2770 1915 2762 1916 2753 1913 2736 1906 2736 1907 2752 1924 2772 1943 2792 1937 2788 1913 2786 1904 2792 1896 2801 1895 2814 1893 2817 1903 2817 1951 2817 1998 2814 2010 2801 2010 2787 2011 2787 2012 2802 2020 2823 2033 2815 2071 2792 2063 2779 2059 2779 2061 2794 2072 2811 2085 2811 2090 2799 2123 2792 2143 2782 2160 2778 2160 2774 2160 2770 2167 2770 2175 2770 2183 2764 2190 2756 2190 2749 2190 2740 2199 2737 2210 2734 2221 2726 2230 2718 2230 2708 2230 2709 2227 2720 2220ZM2750 2001C2750 1996 2743 1987 2735 1980 2723 1970 2720 1970 2720 1982 2720 1990 2723 2000 2727 2003 2736 2013 2750 2012 2750 2001ZM2747 1948C2744 1940 2741 1943 2741 1954 2740 1965 2743 1971 2746 1967 2749 1964 2750 1955 2747 1948Z" fill="#FFFFFF"/><path d="M2656 2202C2653 2197 2657 2193 2665 2193 2673 2193 2680 2197 2680 2202 2680 2206 2676 2210 2671 2210 2665 2210 2659 2206 2656 2202Z" fill="#FFFFFF"/><path d="M1454 2164C1438 2150 1416 2135 1405 2130 1387 2122 1387 2121 1410 2120L1435 2118 1408 2108C1392 2103 1380 2091 1380 2082 1380 2067 1382 2067 1390 2080 1397 2090 1402 2092 1408 2084 1412 2078 1433 2073 1454 2072 1502 2070 1536 2034 1570 1948 1583 1915 1601 1888 1611 1885 1650 1872 1617 1848 1542 1834 1519 1830 1456 1794 1453 1783 1448 1769 1570 1760 1588 1773 1597 1780 1599 1778 1594 1766 1590 1755 1593 1750 1607 1750 1630 1750 1680 1728 1680 1717 1680 1707 1731 1657 1756 1643 1767 1637 1782 1635 1788 1639 1803 1648 1762 1684 1735 1685 1721 1685 1715 1693 1713 1712 1711 1737 1713 1738 1736 1730 1758 1721 1760 1722 1750 1740 1741 1757 1723 1765 1699 1762 1695 1761 1694 1770 1697 1781 1701 1796 1705 1798 1711 1789 1727 1763 1730 1787 1714 1818 1706 1836 1701 1854 1704 1859 1707 1863 1699 1879 1687 1892 1674 1906 1666 1923 1668 1931 1671 1942 1670 1942 1660 1934 1651 1925 1651 1917 1661 1899 1668 1886 1675 1872 1676 1868 1677 1863 1679 1859 1680 1858 1687 1850 1686 1810 1679 1810 1674 1810 1670 1802 1670 1793 1670 1778 1668 1777 1660 1790 1655 1798 1655 1806 1659 1808 1670 1812 1661 1850 1649 1850 1644 1850 1640 1861 1640 1875 1640 1889 1636 1900 1631 1900 1626 1900 1619 1911 1616 1925 1612 1942 1605 1948 1597 1943 1590 1939 1591 1943 1599 1954 1607 1963 1609 1970 1604 1969 1584 1965 1576 1971 1590 1980 1602 1988 1602 1991 1588 2007 1579 2017 1571 2028 1571 2033 1570 2037 1569 2042 1569 2045 1568 2048 1567 2053 1566 2058 1564 2070 1517 2120 1508 2120 1493 2120 1500 2101 1518 2097 1534 2093 1534 2092 1517 2091 1507 2091 1497 2098 1494 2108 1491 2117 1484 2133 1479 2142 1466 2167 1467 2170 1490 2170 1501 2170 1510 2175 1510 2180 1510 2198 1484 2191 1454 2164ZM1465 2140C1468 2134 1461 2130 1448 2130 1430 2130 1428 2132 1440 2140 1459 2152 1458 2152 1465 2140ZM1460 2101C1460 2096 1453 2090 1445 2086 1430 2081 1425 2091 1437 2103 1446 2113 1460 2112 1460 2101ZM1595 1821C1592 1815 1585 1812 1580 1815 1575 1818 1569 1816 1565 1810 1562 1805 1565 1800 1572 1800 1581 1800 1581 1797 1570 1790 1562 1785 1548 1781 1540 1781 1531 1781 1529 1783 1537 1786 1544 1789 1547 1797 1544 1805 1541 1813 1550 1822 1567 1828 1598 1838 1605 1837 1595 1821ZM1641 1793C1654 1778 1653 1778 1633 1789 1609 1801 1604 1810 1619 1810 1624 1810 1634 1803 1641 1793Z" fill="#FFFFFF"/><path d="M1996 2125C2005 2104 2040 2106 2040 2128 2040 2143 2038 2143 2029 2130 2021 2119 2017 2118 2013 2128 2006 2145 1989 2143 1996 2125Z" fill="#FFFFFF"/><path d="M2681 2123C2688 2111 2696 2103 2699 2106 2702 2108 2696 2118 2686 2128 2669 2144 2668 2144 2681 2123Z" fill="#FFFFFF"/><path d="M1335 2087C1318 2073 1310 2058 1314 2051 1318 2045 1326 2042 1331 2046 1336 2049 1338 2056 1335 2061 1332 2066 1335 2067 1343 2064 1352 2061 1360 2067 1363 2081 1372 2113 1366 2114 1335 2087Z" fill="#FFFFFF"/><path d="M1941 2050C1939 2014 1937 2009 1930 2025 1923 2039 1921 2029 1923 1990 1924 1950 1929 1934 1940 1932 1950 1930 1956 1937 1957 1950 1959 1968 1956 1969 1944 1960 1933 1950 1930 1952 1930 1972 1930 1985 1935 2001 1941 2007 1947 2013 1950 2035 1947 2056L1943 2095 1941 2050Z" fill="#FFFFFF"/><path d="M1280 2035C1272 2026 1272 2020 1278 2020 1290 2020 1304 2039 1297 2046 1295 2048 1287 2044 1280 2035Z" fill="#FFFFFF"/><path d="M1872 2023C1874 2013 1880 2001 1885 1997 1891 1991 1891 1987 1882 1983 1876 1981 1872 1974 1876 1969 1887 1951 1900 1971 1900 2006 1900 2030 1895 2040 1885 2040 1875 2040 1870 2033 1872 2023Z" fill="#FFFFFF"/><path d="M1638 1983C1645 1980 1654 1981 1657 1984 1661 1987 1655 1990 1644 1989 1633 1989 1630 1986 1638 1983Z" fill="#FFFFFF"/><path d="M2000 1960C2018 1948 2030 1947 2030 1958 2030 1962 2020 1967 2008 1967 1990 1969 1988 1967 2000 1960Z" fill="#FFFFFF"/><path d="M1885 1925C1885 1911 1890 1900 1896 1900 1909 1900 1907 1943 1894 1947 1889 1949 1885 1939 1885 1925Z" fill="#FFFFFF"/><path d="M1937 1914C1933 1910 1931 1891 1931 1871 1932 1851 1934 1843 1937 1853 1943 1877 1958 1874 1963 1848 1966 1830 1968 1832 1969 1856 1970 1888 1949 1926 1937 1914Z" fill="#FFFFFF"/><path d="M1890 1864C1890 1850 1894 1841 1899 1844 1904 1847 1906 1859 1903 1870 1896 1898 1890 1895 1890 1864Z" fill="#FFFFFF"/><path d="M1890 1710C1890 1705 1895 1700 1900 1700 1906 1700 1910 1705 1910 1710 1910 1716 1906 1720 1900 1720 1895 1720 1890 1716 1890 1710Z" fill="#FFFFFF"/><path d="M720 1700C720 1695 729 1690 740 1690 758 1690 760 1683 760 1630 760 1577 762 1570 780 1570 798 1570 800 1577 800 1630 800 1683 802 1690 820 1690 831 1690 840 1695 840 1700 840 1706 813 1710 780 1710 747 1710 720 1706 720 1700Z" fill="#FFFFFF"/><path d="M1403 1703C1387 1697 1386 1668 1402 1652 1411 1643 1410 1637 1394 1626 1364 1603 1387 1575 1435 1575 1484 1575 1505 1603 1475 1627 1461 1637 1459 1644 1468 1647 1485 1654 1483 1697 1464 1704 1446 1711 1421 1711 1403 1703ZM1455 1670C1455 1648 1426 1652 1422 1673 1419 1687 1423 1691 1437 1688 1447 1686 1455 1678 1455 1670ZM1460 1615C1460 1606 1453 1597 1444 1593 1426 1586 1405 1604 1414 1619 1425 1636 1460 1632 1460 1615Z" fill="#FFFFFF"/><path d="M1543 1698C1518 1686 1511 1664 1535 1674 1547 1678 1550 1669 1550 1625 1550 1583 1553 1570 1565 1570 1577 1570 1580 1584 1580 1640 1580 1713 1579 1715 1543 1698Z" fill="#FFFFFF"/><path d="M1725 1700C1717 1687 1730 1687 1750 1700 1763 1708 1763 1710 1748 1710 1739 1710 1728 1706 1725 1700Z" fill="#FFFFFF"/><path d="M1890 1681C1890 1676 1895 1668 1900 1665 1906 1662 1910 1663 1910 1669 1910 1674 1906 1682 1900 1685 1895 1688 1890 1687 1890 1681Z" fill="#FFFFFF"/><path d="M1970 1679C1970 1674 1964 1672 1958 1676 1951 1680 1952 1676 1960 1667 1968 1658 2014 1643 2062 1632 2148 1614 2150 1614 2156 1632 2163 1656 2152 1670 2141 1651 2135 1642 2130 1641 2126 1649 2122 1655 2111 1660 2102 1659 2088 1659 2089 1657 2105 1650 2121 1643 2119 1641 2093 1643 2075 1644 2060 1649 2060 1655 2060 1661 2045 1671 2027 1678 1986 1693 1970 1693 1970 1679Z" fill="#FFFFFF"/><path d="M879 1651C859 1635 857 1628 865 1604 874 1580 882 1574 913 1572 934 1570 950 1573 950 1579 950 1585 937 1590 920 1590 904 1590 890 1595 890 1600 890 1606 906 1610 925 1610 953 1610 960 1614 960 1630 960 1643 950 1654 934 1660 902 1673 906 1673 879 1651ZM930 1635C930 1627 921 1620 910 1620 890 1620 884 1631 897 1643 909 1656 930 1650 930 1635Z" fill="#FFFFFF"/><path d="M1010 1660C998 1652 1001 1650 1022 1650 1046 1650 1048 1647 1047 1613 1045 1584 1049 1574 1063 1572 1089 1567 1087 1645 1061 1660 1037 1672 1029 1672 1010 1660Z" fill="#FFFFFF"/><path d="M1120 1620C1120 1583 1124 1570 1134 1570 1144 1570 1150 1583 1152 1608 1154 1633 1160 1645 1170 1645 1180 1645 1186 1633 1188 1608 1190 1584 1196 1570 1205 1570 1214 1570 1220 1584 1222 1608 1224 1633 1230 1645 1240 1645 1250 1645 1256 1633 1258 1608 1263 1551 1290 1557 1290 1614 1290 1661 1273 1678 1242 1661 1232 1655 1219 1655 1208 1661 1196 1667 1183 1667 1170 1660 1156 1653 1150 1653 1150 1660 1150 1665 1143 1670 1135 1670 1124 1670 1120 1658 1120 1620Z" fill="#FFFFFF"/><path d="M2765 1631C2765 1609 2768 1588 2773 1584 2784 1572 2781 1558 2769 1566 2762 1570 2759 1567 2762 1559 2765 1551 2764 1535 2759 1523 2754 1509 2756 1498 2764 1491 2774 1482 2779 1483 2784 1496 2797 1530 2787 1670 2771 1670 2768 1670 2765 1652 2765 1631ZM2777 1508C2774 1500 2771 1503 2771 1514 2770 1525 2773 1531 2776 1527 2779 1524 2780 1515 2777 1508Z" fill="#FFFFFF"/><path d="M2734 1651C2737 1646 2692 1643 2632 1643 2573 1643 2507 1642 2485 1641 2463 1640 2401 1642 2348 1645 2280 1650 2250 1648 2250 1641 2250 1635 2240 1630 2228 1630 2210 1630 2208 1632 2220 1640 2230 1646 2226 1649 2203 1648 2179 1647 2173 1643 2178 1632 2181 1622 2179 1619 2172 1624 2165 1628 2160 1626 2160 1619 2160 1612 2170 1610 2190 1614 2210 1618 2220 1616 2220 1607 2220 1599 2224 1600 2230 1610 2239 1623 2241 1623 2250 1610 2259 1597 2261 1597 2270 1610 2275 1618 2280 1620 2280 1614 2280 1606 2312 1602 2380 1603 2435 1603 2480 1607 2480 1612 2480 1617 2489 1616 2500 1610 2528 1595 2636 1601 2632 1618 2630 1628 2634 1628 2650 1618 2666 1608 2674 1608 2690 1618 2701 1624 2719 1630 2730 1630 2741 1630 2750 1637 2750 1645 2750 1653 2745 1660 2739 1660 2734 1660 2731 1656 2734 1651Z" fill="#FFFFFF"/><path d="M1805 1613C1828 1597 1843 1596 1838 1612 1836 1618 1823 1624 1810 1625 1789 1627 1788 1626 1805 1613Z" fill="#FFFFFF"/><path d="M990 1595C990 1576 995 1570 1011 1570 1029 1570 1031 1572 1019 1586 1009 1599 1009 1603 1021 1611 1032 1618 1030 1620 1013 1620 995 1620 990 1614 990 1595Z" fill="#FFFFFF"/><path d="M2708 1613C2715 1610 2724 1611 2727 1614 2731 1617 2725 1620 2714 1619 2703 1619 2700 1616 2708 1613Z" fill="#FFFFFF"/><path d="M1983 1495C1983 1468 1985 1457 1987 1473 1989 1488 1989 1510 1987 1523 1985 1535 1983 1523 1983 1495Z" fill="#FFFFFF"/><path d="M2008 1523C2015 1520 2024 1521 2027 1524 2031 1527 2025 1530 2014 1529 2003 1529 2000 1526 2008 1523Z" fill="#FFFFFF"/><path d="M2658 1498C2631 1487 2610 1471 2610 1463 2610 1451 2607 1451 2594 1464 2574 1484 2564 1485 2580 1465 2587 1457 2589 1450 2584 1449 2579 1449 2584 1445 2595 1441 2625 1429 2648 1439 2643 1460 2639 1474 2647 1481 2674 1491 2694 1498 2710 1508 2710 1512 2710 1522 2713 1523 2658 1498Z" fill="#FFFFFF"/><path d="M893 1484C884 1460 902 1399 922 1387 934 1379 946 1380 964 1388 987 1398 990 1406 990 1450 990 1488 986 1500 975 1500 964 1500 960 1488 960 1455 960 1423 956 1410 946 1410 929 1410 920 1432 920 1471 920 1502 903 1510 893 1484Z" fill="#FFFFFF"/><path d="M1090 1440C1090 1372 1107 1358 1112 1423L1115 1465 1128 1423C1144 1370 1167 1367 1176 1415 1185 1465 1200 1469 1200 1421 1200 1391 1204 1380 1215 1380 1228 1380 1230 1391 1228 1438 1225 1489 1222 1495 1202 1498 1184 1501 1179 1496 1174 1471 1165 1426 1152 1424 1144 1465 1139 1493 1133 1500 1114 1500 1091 1500 1090 1497 1090 1440Z" fill="#FFFFFF"/><path d="M1450 1490C1450 1485 1457 1480 1465 1480 1473 1480 1480 1485 1480 1490 1480 1496 1473 1500 1465 1500 1457 1500 1450 1496 1450 1490Z" fill="#FFFFFF"/><path d="M1500 1440C1500 1393 1503 1380 1515 1380 1527 1380 1530 1393 1530 1440 1530 1487 1527 1500 1515 1500 1503 1500 1500 1487 1500 1440Z" fill="#FFFFFF"/><path d="M2150 1490C2150 1485 2159 1480 2170 1480 2200 1480 2239 1459 2245 1438 2249 1428 2257 1420 2263 1420 2270 1420 2269 1416 2260 1410 2247 1402 2248 1400 2263 1400 2272 1400 2280 1395 2280 1389 2280 1382 2317 1380 2398 1383 2557 1390 2592 1394 2615 1408 2632 1419 2629 1419 2596 1414 2558 1407 2557 1408 2564 1434 2569 1454 2568 1460 2559 1454 2550 1449 2549 1452 2553 1466 2560 1484 2559 1484 2546 1467 2537 1455 2530 1453 2525 1459 2522 1465 2511 1470 2502 1469 2488 1469 2489 1467 2505 1460 2524 1452 2524 1451 2503 1451 2490 1450 2480 1454 2480 1459 2480 1475 2440 1479 2426 1464 2415 1453 2410 1453 2407 1463 2403 1472 2399 1472 2392 1461 2384 1450 2380 1451 2370 1466 2360 1482 2359 1482 2364 1468 2371 1446 2352 1444 2336 1464 2329 1474 2302 1480 2263 1482 2228 1483 2200 1488 2200 1492 2200 1497 2189 1500 2175 1500 2161 1500 2150 1496 2150 1490ZM2467 1454C2464 1451 2455 1450 2448 1453 2440 1456 2443 1459 2454 1459 2465 1460 2471 1457 2467 1454ZM2310 1425 2335 1411 2307 1410C2291 1410 2281 1414 2285 1419 2288 1424 2282 1431 2273 1433 2260 1436 2260 1438 2270 1438 2278 1439 2296 1433 2310 1425ZM2430 1426C2423 1419 2417 1419 2410 1426 2404 1432 2407 1436 2420 1436 2433 1436 2436 1432 2430 1426ZM2544 1425C2540 1414 2533 1413 2521 1420 2509 1426 2499 1425 2492 1418 2484 1410 2480 1410 2480 1416 2480 1433 2492 1440 2521 1440 2542 1440 2548 1436 2544 1425Z" fill="#FFFFFF"/><path d="M2756 1398C2757 1358 2754 1317 2749 1308 2743 1297 2744 1290 2753 1287 2759 1284 2755 1281 2743 1281 2730 1280 2720 1275 2720 1270 2720 1247 2756 1267 2771 1297 2789 1331 2796 1426 2780 1400 2774 1391 2770 1390 2770 1397 2770 1403 2775 1412 2780 1415 2798 1426 2792 1470 2773 1470 2757 1470 2755 1460 2756 1398ZM2777 1438C2774 1430 2771 1433 2771 1444 2770 1455 2773 1461 2776 1457 2779 1454 2780 1445 2777 1438ZM2777 1328C2774 1320 2771 1323 2771 1334 2770 1345 2773 1351 2776 1347 2779 1344 2780 1335 2777 1328Z" fill="#FFFFFF"/><path d="M1252 1444C1231 1406 1266 1371 1309 1385 1355 1399 1339 1460 1290 1460 1274 1460 1257 1453 1252 1444ZM1305 1430C1316 1413 1300 1398 1284 1411 1277 1417 1273 1426 1276 1431 1283 1443 1297 1442 1305 1430Z" fill="#FFFFFF"/><path d="M1354 1444C1357 1435 1363 1417 1366 1404 1375 1367 1405 1374 1423 1418 1440 1459 1438 1465 1415 1457 1407 1453 1400 1441 1400 1430 1400 1418 1396 1412 1390 1415 1385 1418 1380 1430 1380 1441 1380 1452 1373 1460 1364 1460 1353 1460 1350 1455 1354 1444Z" fill="#FFFFFF"/><path d="M1450 1420C1450 1391 1454 1380 1465 1380 1476 1380 1480 1391 1480 1420 1480 1449 1476 1460 1465 1460 1454 1460 1450 1449 1450 1420Z" fill="#FFFFFF"/><path d="M2020 1436C2020 1434 2029 1430 2040 1427 2051 1424 2058 1426 2054 1431 2049 1440 2020 1444 2020 1436Z" fill="#FFFFFF"/><path d="M1028 1423C1034 1421 1046 1421 1053 1423 1059 1426 1054 1428 1040 1428 1026 1428 1021 1426 1028 1423Z" fill="#FFFFFF"/><path d="M2690 1249C2690 1238 2694 1231 2700 1235 2705 1238 2707 1247 2703 1255 2696 1276 2690 1274 2690 1249Z" fill="#FFFFFF"/><path d="M2546 1239C2530 1234 2513 1233 2508 1236 2504 1239 2500 1237 2500 1232 2500 1218 2526 1199 2533 1207 2539 1212 2604 1220 2658 1222 2688 1222 2686 1236 2655 1242 2641 1245 2630 1243 2630 1238 2630 1233 2624 1232 2618 1236 2601 1247 2579 1248 2546 1239Z" fill="#FFFFFF"/><path d="M2033 1233C2048 1231 2060 1225 2060 1220 2060 1215 2053 1213 2045 1216 2037 1220 2030 1217 2030 1211 2030 1196 2055 1197 2069 1213 2084 1232 2073 1240 2036 1239 2006 1237 2006 1237 2033 1233Z" fill="#FFFFFF"/><path d="M2092 1215C2077 1197 2075 1198 2228 1195 2303 1194 2333 1197 2342 1207 2348 1214 2350 1223 2346 1227 2343 1230 2340 1229 2340 1224 2340 1218 2315 1215 2280 1218 2238 1221 2220 1219 2220 1211 2220 1204 2215 1202 2208 1206 2202 1210 2176 1213 2152 1211 2124 1210 2110 1213 2115 1219 2124 1235 2107 1231 2092 1215Z" fill="#FFFFFF"/><path d="M2363 1212C2356 1194 2369 1183 2379 1198 2383 1205 2393 1210 2400 1208 2407 1206 2415 1211 2417 1217 2420 1226 2413 1229 2395 1228 2380 1226 2365 1220 2363 1212Z" fill="#FFFFFF"/><path d="M2433 1216C2435 1210 2451 1204 2469 1202 2493 1199 2501 1202 2498 1212 2495 1219 2479 1225 2461 1226 2442 1227 2431 1223 2433 1216Z" fill="#FFFFFF"/><path d="M456 1160C468 1150 561 1128 568 1134 574 1141 559 1146 496 1158 470 1164 452 1165 456 1160Z" fill="#FFFFFF"/><path d="M2020 1120C2020 1100 2016 1100 1923 1106L1827 1113 1833 1059C1837 1029 1840 995 1840 983 1840 970 1844 960 1848 960 1852 960 1854 989 1852 1025L1848 1089 1940 1092C2026 1095 2033 1097 2041 1118 2047 1134 2046 1140 2035 1140 2027 1140 2020 1131 2020 1120Z" fill="#FFFFFF"/><path d="M720 1060C695 1055 655 1051 631 1051 602 1050 589 1047 596 1040 602 1034 646 1035 720 1042L835 1053 919 1017C966 997 1005 982 1007 984 1015 991 834 1063 800 1065 781 1067 745 1065 720 1060Z" fill="#FFFFFF"/><path d="M1928 878C1925 871 1928 850 1935 831 1945 801 1940 757 1899 516 1855 261 1850 217 1865 231 1867 234 1890 359 1915 509 1954 738 1959 787 1950 816 1944 834 1941 859 1945 870 1952 891 1935 899 1928 878Z" fill="#FFFFFF"/><path d="M1130 782C1138 777 1156 769 1170 766 1187 761 1190 762 1180 768 1172 773 1154 781 1140 784 1123 789 1120 788 1130 782Z" fill="#FFFFFF"/><path d="M1278 673C1250 669 1238 650 1263 650 1287 650 1320 662 1320 671 1320 676 1317 679 1313 679 1308 678 1293 675 1278 673Z" fill="#FFFFFF"/><path d="M1539 616C1526 588 1448 550 1399 549L1365 548 1400 539C1443 527 1510 553 1553 598 1577 623 1579 628 1565 633 1555 638 1546 632 1539 616Z" fill="#FFFFFF"/><path d="M1626 605C1630 597 1642 590 1655 590 1667 590 1694 583 1713 575 1753 558 1810 555 1810 569 1810 574 1791 578 1768 578 1744 578 1703 588 1677 599 1619 624 1619 624 1626 605Z" fill="#FFFFFF"/><path d="M1740 295C1702 256 1717 247 1760 284 1776 297 1785 312 1781 318 1776 326 1762 318 1740 295Z" fill="#FFFFFF"/></g></svg>